<svg width="40" height="44" viewBox="0 0 40 44" fill="none" xmlns="http://www.w3.org/2000/svg">
<g clip-path="url(#clip0)">
<path d="M19.9958 34.8333C27.4942 27.6962 33.3263 22.2347 33.3263 14.245C33.3263 6.37817 27.3575 0 19.9958 0C12.634 0 6.66526 6.37817 6.66526 14.245C6.66526 22.2347 12.4974 27.6962 19.9958 34.8333ZM10.3961 16.5H14.9968V12.8333H10.3545C11.0093 8.349 14.227 4.80517 18.3295 4.03517V9.16667H21.6621V4.03517C25.7645 4.80517 28.9822 8.349 29.6371 12.8333H24.9947V16.5H29.5954C28.8422 20.8413 25.6729 24.2422 21.6621 24.992V20.1667H18.3295V24.992C14.3203 24.2422 11.1493 20.8413 10.3961 16.5ZM33.3263 29.3333H30.3252C29.2771 30.5672 28.1324 31.7808 26.9243 33H31.2651L32.0982 34.8333H25.0697L23.1601 36.6667H24.8681L26.2978 40.3333H13.8221L15.2518 36.6667H16.8298C16.1816 36.0507 15.5434 35.4402 14.9185 34.8333H11.5942L9.90957 33H13.0672C11.8592 31.7827 10.7177 30.5672 9.66962 29.3333H6.66526L0 44H39.9915L33.3263 29.3333ZM12.0075 40.3333H5.39219L8.33157 33.8653L10.8577 36.6667H13.4388L12.0075 40.3333ZM26.6844 36.6667H32.933L34.5993 40.3333H28.114L26.6844 36.6667Z" fill="white"/>
</g>
<defs>
<clipPath id="clip0">
<rect width="39.9915" height="44" fill="white"/>
</clipPath>
</defs>
</svg>
