<svg width="39" height="41" viewBox="0 0 39 41" fill="none" xmlns="http://www.w3.org/2000/svg">
<path d="M30.5433 3.41667C30.5433 1.53067 29.1399 0 27.4106 0H11.7473C10.0181 0 8.61462 1.53067 8.61462 3.41667V37.5833C8.61462 39.4693 10.0181 41 11.7473 41H27.4106C29.1399 41 30.5433 39.4693 30.5433 37.5833V3.41667ZM17.2295 3.41667H21.9285C22.3608 3.41667 22.7116 3.79933 22.7116 4.27083C22.7116 4.74233 22.3608 5.125 21.9285 5.125H17.2295C16.7972 5.125 16.4463 4.74233 16.4463 4.27083C16.4463 3.79933 16.7972 3.41667 17.2295 3.41667ZM19.579 37.5833C18.7128 37.5833 18.0126 36.818 18.0126 35.875C18.0126 34.932 18.7128 34.1667 19.579 34.1667C20.4436 34.1667 21.1437 34.932 21.1437 35.875C21.1437 36.818 20.4436 37.5833 19.579 37.5833ZM27.4106 32.4583H11.7473V8.50067H27.4106V32.4583Z" fill="white"/>
</svg>
