<svg width="82" height="73" viewBox="0 0 82 73" fill="none" xmlns="http://www.w3.org/2000/svg">
<g clip-path="url(#clip0)">
<path fill-rule="evenodd" clip-rule="evenodd" d="M17.2278 54.432H13.8366C11.9646 54.432 10.4454 53.0783 10.4454 51.4102V45.3665H51.1396V18.1699H66.9662C70.7542 18.1699 72.3921 19.9105 73.5315 21.5151C75.5459 24.3556 78.7404 28.8642 80.6835 31.7229C81.3211 32.6657 81.6602 33.7475 81.6602 34.8505V48.3884C81.6602 51.7758 79.1914 54.432 74.8778 54.432H71.4867C71.4867 59.4362 66.9289 63.4976 61.3131 63.4976C55.6973 63.4976 51.1396 59.4362 51.1396 54.432H37.5748C37.5748 59.4362 33.0171 63.4976 27.4013 63.4976C21.7855 63.4976 17.2278 59.4362 17.2278 54.432ZM27.4013 50.8058C29.6463 50.8058 31.4707 52.4316 31.4707 54.432C31.4707 56.4325 29.6463 58.0583 27.4013 58.0583C25.1563 58.0583 23.3319 56.4325 23.3319 54.432C23.3319 52.4316 25.1563 50.8058 27.4013 50.8058ZM61.3131 50.8058C63.5581 50.8058 65.3825 52.4316 65.3825 54.432C65.3825 56.4325 63.5581 58.0583 61.3131 58.0583C59.0682 58.0583 57.2437 56.4325 57.2437 54.432C57.2437 52.4316 59.0682 50.8058 61.3131 50.8058ZM27.4013 24.2136H0.271851V18.1699H27.4013V15.1481H10.4454V12.1262C10.4454 10.4582 11.9646 9.10437 13.8366 9.10437H44.3572C46.2291 9.10437 47.7484 10.4582 47.7484 12.1262V42.3447H10.4454V33.2791H3.66303V27.2354H27.4013V24.2136ZM57.9219 24.2136V33.2791H73.9114L69.0721 25.7366C68.4685 24.7938 67.346 24.2136 66.1286 24.2136H57.9219Z" fill="url(#paint0_linear)"/>
<path d="M17.7278 54.432V53.932H17.2278H13.8366C12.185 53.932 10.9454 52.7495 10.9454 51.4102V45.8665H51.1396H51.6396V45.3665V18.6699H66.9662C68.7787 18.6699 70.0416 19.0848 70.9786 19.6657C71.9212 20.2501 72.5696 21.024 73.1239 21.8046C75.139 24.6463 78.3297 29.1494 80.2694 32.0031C80.8532 32.8665 81.1602 33.8513 81.1602 34.8505V48.3884C81.1602 49.9569 80.591 51.3317 79.5441 52.3163C78.4962 53.3017 76.9308 53.932 74.8778 53.932H71.4867H70.9867V54.432C70.9867 59.1074 66.7085 62.9976 61.3131 62.9976C55.9177 62.9976 51.6396 59.1074 51.6396 54.432V53.932H51.1396H37.5748H37.0748V54.432C37.0748 59.1074 32.7967 62.9976 27.4013 62.9976C22.0059 62.9976 17.7278 59.1074 17.7278 54.432ZM27.9013 24.2136V23.7136H27.4013H0.771851V18.6699H27.4013H27.9013V18.1699V15.1481V14.6481H27.4013H10.9454V12.1262C10.9454 10.7869 12.185 9.60437 13.8366 9.60437H44.3572C46.0088 9.60437 47.2484 10.7869 47.2484 12.1262V41.8447H10.9454V33.2791V32.7791H10.4454H4.16303V27.7354H27.4013H27.9013V27.2354V24.2136ZM57.9219 23.7136H57.4219V24.2136V33.2791V33.7791H57.9219H73.9114H74.8262L74.3322 33.0091L69.4932 25.467C68.7883 24.366 67.4984 23.7136 66.1286 23.7136H57.9219ZM31.9707 54.432C31.9707 52.1028 29.8666 50.3058 27.4013 50.3058C24.936 50.3058 22.8319 52.1028 22.8319 54.432C22.8319 56.7613 24.936 58.5583 27.4013 58.5583C29.8666 58.5583 31.9707 56.7613 31.9707 54.432ZM65.8825 54.432C65.8825 52.1028 63.7785 50.3058 61.3131 50.3058C58.8478 50.3058 56.7437 52.1028 56.7437 54.432C56.7437 56.7613 58.8478 58.5583 61.3131 58.5583C63.7785 58.5583 65.8825 56.7613 65.8825 54.432Z" stroke="#5E27B9" stroke-opacity="0.2"/>
</g>
<defs>
<linearGradient id="paint0_linear" x1="16.4775" y1="15.7631" x2="68.261" y2="69.5443" gradientUnits="userSpaceOnUse">
<stop stop-color="#C4A8FF"/>
<stop offset="1" stop-color="#7B8AC2"/>
</linearGradient>
<clipPath id="clip0">
<rect width="81.3884" height="72.5243" fill="white" transform="translate(0.271851 0.0388184)"/>
</clipPath>
</defs>
</svg>
