<svg width="72" height="66" viewBox="0 0 72 66" fill="none" xmlns="http://www.w3.org/2000/svg">
<g clip-path="url(#clip0)">
<path fill-rule="evenodd" clip-rule="evenodd" d="M8.96481 48.9538H2.98827C1.33874 48.9538 0 47.7354 0 46.2342V10.8786C0 9.37734 1.33874 8.15894 2.98827 8.15894H41.8358C43.4853 8.15894 44.824 9.37734 44.824 10.8786V16.3179H58.7703C62.1082 16.3179 63.5515 17.8844 64.5556 19.3286C66.3306 21.8851 69.1455 25.9428 70.8578 28.5156C71.4196 29.3641 71.7184 30.3378 71.7184 31.3304V43.5145C71.7184 46.4762 69.4982 48.9538 65.7419 48.9538H62.7536C62.7536 53.4576 58.7374 57.1128 53.7888 57.1128C48.8403 57.1128 44.824 53.4576 44.824 48.9538H26.8944C26.8944 53.4576 22.8782 57.1128 17.9296 57.1128C12.981 57.1128 8.96481 53.4576 8.96481 48.9538ZM17.9296 45.6902C19.9078 45.6902 21.5155 47.1534 21.5155 48.9538C21.5155 50.7542 19.9078 52.2174 17.9296 52.2174C15.9514 52.2174 14.3437 50.7542 14.3437 48.9538C14.3437 47.1534 15.9514 45.6902 17.9296 45.6902ZM53.7888 45.6902C55.7671 45.6902 57.3748 47.1534 57.3748 48.9538C57.3748 50.7542 55.7671 52.2174 53.7888 52.2174C51.8106 52.2174 50.2029 50.7542 50.2029 48.9538C50.2029 47.1534 51.8106 45.6902 53.7888 45.6902ZM44.824 38.0752H5.97654V43.5145H11.2508C12.8914 41.8446 15.276 40.7949 17.9296 40.7949C20.5832 40.7949 22.9678 41.8446 24.6084 43.5145H47.1101C48.7506 41.8446 51.1353 40.7949 53.7888 40.7949C56.4424 40.7949 58.8271 41.8446 60.4676 43.5145H65.7419V31.0721L60.629 23.1062C60.0941 22.2713 59.1109 21.7572 58.0501 21.7572H44.824V38.0752ZM38.8475 13.5983H5.97654V32.6359H38.8475V13.5983ZM47.8123 24.4769V32.6359H62.7536L58.4894 25.8476C57.9575 24.9991 56.9684 24.4769 55.8956 24.4769H47.8123Z" fill="url(#paint0_linear)"/>
<path d="M9.46481 48.9538V48.4538H8.96481H2.98827C1.56953 48.4538 0.5 47.416 0.5 46.2342V10.8786C0.5 9.69676 1.56953 8.65894 2.98827 8.65894H41.8358C43.2545 8.65894 44.324 9.69676 44.324 10.8786V16.3179V16.8179H44.824H58.7703C60.3557 16.8179 61.456 17.1883 62.2706 17.7041C63.0915 18.2239 63.6579 18.9133 64.145 19.614C65.921 22.1718 68.7325 26.2246 70.4414 28.7924C70.9505 29.5615 71.2184 30.4394 71.2184 31.3304V43.5145C71.2184 44.8679 70.7127 46.0953 69.7914 46.9852C68.8713 47.8739 67.507 48.4538 65.7419 48.4538H62.7536H62.2536V48.9538C62.2536 53.1382 58.5066 56.6128 53.7888 56.6128C49.071 56.6128 45.324 53.1382 45.324 48.9538V48.4538H44.824H26.8944H26.3944V48.9538C26.3944 53.1382 22.6474 56.6128 17.9296 56.6128C13.2118 56.6128 9.46481 53.1382 9.46481 48.9538ZM44.324 21.7572V37.5752H5.97654H5.47654V38.0752V43.5145V44.0145H5.97654H11.2508H11.4605L11.6075 43.8649C13.1525 42.2923 15.408 41.2949 17.9296 41.2949C20.4512 41.2949 22.7067 42.2923 24.2517 43.8649L24.3987 44.0145H24.6084H47.1101H47.3198L47.4667 43.8649C49.0118 42.2923 51.2672 41.2949 53.7888 41.2949C56.3104 41.2949 58.5659 42.2923 60.1109 43.8649L60.2579 44.0145H60.4676H65.7419H66.2419V43.5145V31.0721V30.9254L66.1627 30.802L61.05 22.8365C60.4157 21.8463 59.267 21.2572 58.0501 21.2572H44.824H44.324V21.7572ZM39.3475 13.5983V13.0983H38.8475H5.97654H5.47654V13.5983V32.6359V33.1359H5.97654H38.8475H39.3475V32.6359V13.5983ZM58.0657 26.1132L58.066 26.1136L61.8491 32.1359H48.3123V24.9769H55.8956C56.8112 24.9769 57.633 25.4228 58.0657 26.1132ZM22.0155 48.9538C22.0155 46.834 20.1386 45.1902 17.9296 45.1902C15.7206 45.1902 13.8437 46.834 13.8437 48.9538C13.8437 51.0737 15.7206 52.7174 17.9296 52.7174C20.1386 52.7174 22.0155 51.0737 22.0155 48.9538ZM57.8748 48.9538C57.8748 46.834 55.9979 45.1902 53.7888 45.1902C51.5798 45.1902 49.7029 46.834 49.7029 48.9538C49.7029 51.0737 51.5798 52.7174 53.7888 52.7174C55.9979 52.7174 57.8748 51.0737 57.8748 48.9538Z" stroke="#5E27B9" stroke-opacity="0.2"/>
</g>
<defs>
<linearGradient id="paint0_linear" x1="14.2802" y1="14.1518" x2="60.9122" y2="61.5705" gradientUnits="userSpaceOnUse">
<stop stop-color="#C4A8FF"/>
<stop offset="1" stop-color="#7B8AC2"/>
</linearGradient>
<clipPath id="clip0">
<rect width="71.7184" height="65.2718" fill="white"/>
</clipPath>
</defs>
</svg>
