<svg width="62" height="113" viewBox="0 0 62 113" fill="none" xmlns="http://www.w3.org/2000/svg">
<g clip-path="url(#clip0)">
<path d="M30.6042 9.41667C34.498 9.41667 37.6667 12.5854 37.6667 16.4792V51.9094C37.6667 59.2967 40.0868 62.6773 44.3101 66.2698C49.0655 70.3095 51.7917 76.1855 51.7917 82.3958C51.7917 94.0772 42.2855 103.583 30.6042 103.583C18.9228 103.583 9.41667 94.0772 9.41667 82.3958C9.41667 76.1855 12.1428 70.3095 16.9029 66.2698C21.1216 62.6867 23.5417 59.3015 23.5417 51.9094V16.4792C23.5417 12.5854 26.7104 9.41667 30.6042 9.41667ZM30.6042 0C21.503 0 14.125 7.37796 14.125 16.4792V51.9094C14.125 54.6732 12.9103 57.3004 10.8056 59.0896C4.19983 64.7019 0 73.0498 0 82.3958C0 99.2988 13.6965 113 30.6042 113C47.5118 113 61.2083 99.2988 61.2083 82.3958C61.2083 73.0498 57.0085 64.7019 50.4027 59.0896C48.2981 57.3004 47.0833 54.6732 47.0833 51.9094V16.4792C47.0833 7.37796 39.7054 0 30.6042 0ZM40.5246 69.2973C35.7598 65.1068 32.9583 61.133 32.9583 54.1364V47.0833H28.25V54.1364C28.25 61.1236 25.4391 65.1163 20.6837 69.2973C16.9453 72.5837 14.125 77.0283 14.125 82.3958C14.125 91.497 21.503 98.875 30.6042 98.875C39.7054 98.875 47.0833 91.497 47.0833 82.3958C47.0833 77.0283 44.263 72.5884 40.5246 69.2973Z" fill="url(#paint0_linear)"/>
<path d="M34.5151 63.0073C33.1745 60.5333 32.4583 57.7069 32.4583 54.1364V47.5833H28.75V54.1364C28.75 57.7025 28.0313 60.5312 26.6898 63.0073C25.3523 65.4759 23.4114 67.5648 21.0139 69.6728L20.6837 69.2973L21.0138 69.6728C17.3444 72.8985 14.625 77.2169 14.625 82.3958C14.625 91.2209 21.7791 98.375 30.6042 98.375C39.4292 98.375 46.5833 91.2209 46.5833 82.3958C46.5833 77.2172 43.8642 72.9034 40.1944 69.6727L34.5151 63.0073ZM34.5151 63.0073C35.8514 65.4737 37.7924 67.5602 40.1942 69.6725L34.5151 63.0073ZM11.1294 59.4706L11.1295 59.4705C13.3459 57.5863 14.625 54.8198 14.625 51.9094V16.4792C14.625 7.6541 21.7791 0.5 30.6042 0.5C39.4292 0.5 46.5833 7.6541 46.5833 16.4792V51.9094C46.5833 54.8198 47.8624 57.5863 50.0789 59.4705L50.079 59.4706C56.5783 64.9925 60.7083 73.2034 60.7083 82.3958C60.7083 99.0227 47.2356 112.5 30.6042 112.5C13.9727 112.5 0.5 99.0227 0.5 82.3958C0.5 73.2034 4.63007 64.9925 11.1294 59.4706ZM38.1667 16.4792C38.1667 12.3092 34.7741 8.91667 30.6042 8.91667C26.4342 8.91667 23.0417 12.3092 23.0417 16.4792V51.9094C23.0417 55.5495 22.4462 58.1609 21.359 60.2906C20.2701 62.4237 18.6673 64.1153 16.5792 65.8887C11.7078 70.023 8.91667 76.038 8.91667 82.3958C8.91667 94.3534 18.6467 104.083 30.6042 104.083C42.5617 104.083 52.2917 94.3534 52.2917 82.3958C52.2917 76.038 49.5005 70.023 44.6338 65.8887C42.5433 64.1105 40.9393 62.4177 39.8499 60.2852C38.7621 58.156 38.1667 55.5471 38.1667 51.9094V16.4792Z" stroke="#5E27B9" stroke-opacity="0.2"/>
</g>
<defs>
<linearGradient id="paint0_linear" x1="18.75" y1="13.8333" x2="112.068" y2="67.8101" gradientUnits="userSpaceOnUse">
<stop stop-color="#C4A8FF"/>
<stop offset="1" stop-color="#7B8AC2"/>
</linearGradient>
<clipPath id="clip0">
<rect width="61.2083" height="113" fill="white"/>
</clipPath>
</defs>
</svg>
