<svg width="89" height="71" viewBox="0 0 89 71" fill="none" xmlns="http://www.w3.org/2000/svg">
<g clip-path="url(#clip0)">
<path fill-rule="evenodd" clip-rule="evenodd" d="M42.6458 68.0417L11.125 54.6257V42.9314L31.15 52.1673L42.6458 42.0912V68.0417ZM46.3542 68.0388V41.9877L58.0799 51.8774L77.875 43.1266V54.6257L46.3542 68.0388ZM8.01371 38.0856L0 34.4055L11.125 24.637L0 16.2857L32.3293 2.95837L44.2515 10.014L56.5817 2.95837L89 16.4513L77.8935 24.6489L89 34.8344L80.6859 38.5057V38.5028L58.7956 48.1765L46.3801 37.701L73.8811 25.9801L44.5037 13.0463L15.1226 25.9801L42.6458 37.6271V37.6981L30.4195 48.4132L11.125 39.5145L10.5317 39.2423L8.01371 38.0797V38.0856Z" fill="url(#paint0_linear)"/>
<path d="M11.625 54.2951V43.7126L30.9406 52.6213L31.2354 52.7573L31.4796 52.5433L42.1458 43.1943V67.2855L11.625 54.2951ZM46.8542 67.2826V43.0635L57.7576 52.2596L57.9964 52.461L58.2821 52.3347L77.375 43.8943V54.295L46.8542 67.2826ZM56.6166 3.51448L87.9924 16.5736L77.5966 24.2466L77.1082 24.6071L77.5556 25.0174L88.0984 34.686L81.1859 37.7383V37.7351L80.4838 38.0454L58.8793 47.5929L47.3232 37.8426L74.0772 26.4401L75.1389 25.9876L74.0826 25.5225L44.7052 12.5887L44.5037 12.5L44.3023 12.5887L14.9211 25.5225L13.861 25.9892L14.9277 26.4406L41.7711 37.7999L30.3341 47.8232L11.3344 39.0605L11.3335 39.06L10.7413 38.7884L10.7401 38.7879L8.22331 37.6258L7.51371 37.2981V37.3058L0.908997 34.2727L11.4549 25.0128L11.9174 24.6067L11.4252 24.2372L1.00267 16.4131L32.2892 3.51569L43.9969 10.4443L44.2473 10.5925L44.4999 10.448L56.6166 3.51448Z" stroke="#5E27B9" stroke-opacity="0.2"/>
</g>
<defs>
<linearGradient id="paint0_linear" x1="17.7212" y1="10.9258" x2="79.6421" y2="69.6989" gradientUnits="userSpaceOnUse">
<stop stop-color="#C4A8FF"/>
<stop offset="1" stop-color="#7B8AC2"/>
</linearGradient>
<clipPath id="clip0">
<rect width="89" height="71" fill="white"/>
</clipPath>
</defs>
</svg>
