<svg width="29" height="25" viewBox="0 0 29 25" fill="none" xmlns="http://www.w3.org/2000/svg">
<g clip-path="url(#clip0)">
<path d="M29 4.74701C27.933 5.15534 26.7863 5.43034 25.5828 5.5543C26.8117 4.91992 27.7554 3.91471 28.1989 2.7168C27.0498 3.3043 25.7762 3.73138 24.4204 3.96159C23.3365 2.96471 21.7887 2.3418 20.0777 2.3418C16.2364 2.3418 13.4137 5.43138 14.2813 8.63867C9.338 8.42513 4.95417 6.38346 2.01912 3.28034C0.460375 5.58555 1.21075 8.60117 3.85942 10.1283C2.8855 10.1012 1.96717 9.87096 1.16604 9.48659C1.10079 11.8626 3.07642 14.0855 5.93775 14.5803C5.10038 14.7762 4.18325 14.822 3.25042 14.6678C4.00683 16.7053 6.20358 18.1876 8.80875 18.2293C6.3075 19.9199 3.15617 20.6751 0 20.3543C2.63296 21.8095 5.76133 22.6585 9.1205 22.6585C20.1671 22.6585 26.4081 14.6158 26.0311 7.40221C27.1935 6.67826 28.2025 5.77513 29 4.74701Z" fill="white"/>
</g>
<defs>
<clipPath id="clip0">
<rect width="29" height="25" fill="white"/>
</clipPath>
</defs>
</svg>
